<?xml version="1.0" encoding="UTF-8" standalone="no"?>
<svg xmlns="http://www.w3.org/2000/svg" xmlns:xlink="http://www.w3.org/1999/xlink" preserveAspectRatio="xMinYMin meet" viewBox="0 0 1024 1024" version="1.1" width="25" height="25">
  <path d="M442.181818 69.578623C442.181818 31.151411 473.171653 0 512 0L512 0C550.559517 0 581.818182 31.205408 581.818182 69.578623L581.818182 954.421378C581.818182 992.848589 550.828347 1024 512 1024L512 1024C473.440483 1024 442.181818 992.794591 442.181818 954.421378L442.181818 69.578623ZM116.363636 209.698498C116.363636 171.004249 147.353471 139.636364 186.181818 139.636364L186.181818 139.636364C224.741335 139.636364 256 170.688222 256 209.698498L256 814.301501C256 852.995752 225.010165 884.363636 186.181818 884.363636L186.181818 884.363636C147.622301 884.363636 116.363636 853.311777 116.363636 814.301501L116.363636 209.698498ZM768 302.338104C768 263.893104 798.989833 232.727273 837.818182 232.727273L837.818182 232.727273C876.377698 232.727273 907.636364 264.357444 907.636364 302.338104L907.636364 721.661896C907.636364 760.106896 876.64653 791.272727 837.818182 791.272727L837.818182 791.272727C799.258666 791.272727 768 759.642554 768 721.661896L768 302.338104Z" fill="#3f86ff" data-spm-anchor-id="a313x.search_index.0.i21.7cf23a817JQBIp" class="selected"></path>
</svg>
